# xmcd
#
# Track frame offsets:
#	150
#	16230
#	33930
#	49781
#	68545
#	80817
#	97990
#	117020
#	133809
#	151924
#	169921
#	185078
#	202779
#	221183
#	243656
#	253553
#	264015
#	279456
#
# Disc length: 4019 seconds
#
# Revision: 1
# Processed by: cddbd v1.5.2PL0 Copyright (c) Steve Scherf et al.
# Submitted via: audiograbber 1.83.01
#
DISCID=f50fb112
DTITLE=Various Artist - CDX Volume 1036 (November 14, 2016)
DYEAR=2016
DGENRE=Other
TTITLE0=Cyndi Lauper (featuring Alison Krauss) - Hard Candy Christmas 
TTITLE1=Kacy Musgraves (featuring Leon Bridges) - Present Without A Bow
TTITLE2=John Oates (featuring The Time Jumpers) - Santa Be Good To Me
TTITLE3=Ray Stevens - Mary And Joseph And The Baby And Me
TTITLE4=Canton Junction - A Big Ole Texas Christmas
TTITLE5=Vince Vance and The Valiants - All I Want For Christmas Is You
TTITLE6=Serene and Pearl - Bread Of Life
TTITLE7=Robbie Robinson - Carolina Christmas
TTITLE8=Vince Vance and The Valiants - Christmas State Of Mind
TTITLE9=Emily Vance - Christmas Stays The Same
TTITLE10=Colby Dee - Christmas Time To Me
TTITLE11=Allie Louise - Hometown Christmas
TTITLE12=Josie Brandon - Let The Little Angels Whisper
TTITLE13=Martha Sides - O Holy Night
TTITLE14=Olivia Lane - Rockin' Around The Christmas Tree
TTITLE15=Cody Joe Hodges - Tangled In The Christmas Lights 
TTITLE16=Greg Sterling - That Better Be Santa
TTITLE17=Newsong - The Christmas Shoes
EXTD=
EXTT0=
EXTT1=
EXTT2=
EXTT3=
EXTT4=
EXTT5=
EXTT6=
EXTT7=
EXTT8=
EXTT9=
EXTT10=
EXTT11=
EXTT12=
EXTT13=
EXTT14=
EXTT15=
EXTT16=
EXTT17=
PLAYORDER=
